<?xml version="1.0" encoding="UTF-8"?>
<svg version="1.1" xmlns="http://www.w3.org/2000/svg" width="500" height="500">
<path d="M0 0 C165 0 330 0 500 0 C500 165 500 330 500 500 C335 500 170 500 0 500 C0 335 0 170 0 0 Z " fill="#000000" transform="translate(0,0)"/>
<path d="M0 0 C1.12591553 0.00523682 2.25183105 0.01047363 3.41186523 0.01586914 C4.62680664 0.0190918 5.84174805 0.02231445 7.09350586 0.02563477 C8.37290039 0.03401367 9.65229492 0.04239258 10.97045898 0.05102539 C12.2537207 0.05553711 13.53698242 0.06004883 14.85913086 0.06469727 C18.04211921 0.07652994 21.22501661 0.09301471 24.40795898 0.11352539 C27.62753901 6.52680486 30.84364644 12.94181784 34.05761719 19.35791016 C35.14573141 21.5291861 36.2345699 23.70009927 37.32421875 25.87060547 C43.55110973 38.27549268 49.69106402 50.71325936 55.65258789 63.24803162 C59.08423698 70.45940678 62.61167983 77.61385714 66.22045898 84.73852539 C70.46466503 93.1217527 74.51940792 101.55958007 78.40795898 110.11352539 C87.04497535 92.00903898 95.66342761 73.90079211 103.90795898 55.61352539 C109.57321089 43.05306941 115.38789155 30.56777774 121.28295898 18.11352539 C121.68426025 17.26395264 122.08556152 16.41437988 122.49902344 15.5390625 C123.63015625 13.14598559 124.76447839 10.75445279 125.90014648 8.36352539 C126.24105316 7.64233521 126.58195984 6.92114502 126.93319702 6.17810059 C129.29233494 1.22914944 129.29233494 1.22914944 130.40795898 0.11352539 C132.39552926 0.01369481 134.38663418 -0.01728214 136.37670898 -0.01928711 C137.58713867 -0.02057617 138.79756836 -0.02186523 140.04467773 -0.02319336 C141.31956055 -0.01932617 142.59444336 -0.01545898 143.90795898 -0.01147461 C145.8202832 -0.01727539 145.8202832 -0.01727539 147.77124023 -0.02319336 C149.58688477 -0.02125977 149.58688477 -0.02125977 151.43920898 -0.01928711 C152.55875977 -0.01815918 153.67831055 -0.01703125 154.83178711 -0.01586914 C157.40795898 0.11352539 157.40795898 0.11352539 158.40795898 1.11352539 C158.50361021 2.58101499 158.52984208 4.05309423 158.5282135 5.5236969 C158.5302755 6.95195801 158.5302755 6.95195801 158.53237915 8.40907288 C158.52878387 9.46211105 158.5251886 10.51514923 158.52148438 11.60009766 C158.5216304 12.70239716 158.52177643 13.80469666 158.52192688 14.94039917 C158.5212272 18.60359631 158.51343223 22.26674333 158.50561523 25.92993164 C158.50375125 28.46199007 158.50232726 30.99404887 158.50132751 33.52610779 C158.49789244 39.52200788 158.49000167 45.51788629 158.47997802 51.51377767 C158.46881576 58.33833597 158.46330615 65.16289511 158.45828259 71.98746026 C158.44781902 86.02949387 158.429474 100.07150458 158.40795898 114.11352539 C148.83795898 114.11352539 139.26795898 114.11352539 129.40795898 114.11352539 C129.07795898 99.92352539 128.74795898 85.73352539 128.40795898 71.11352539 C125.82081055 76.29942383 123.23366211 81.48532227 120.56811523 86.82836914 C118.93226732 90.10517199 117.2963025 93.38191542 115.65991211 96.65844727 C113.06020664 101.86384562 110.46094664 107.0694632 107.86425781 112.27636719 C105.77170912 116.47229695 103.67723129 120.66725838 101.58138847 124.86154366 C100.78046723 126.46523975 99.98025239 128.06928883 99.18074226 129.67368889 C98.06439694 131.91359458 96.94559013 134.15225384 95.82617188 136.390625 C95.49314056 137.0602829 95.16010925 137.7299408 94.81698608 138.41989136 C92.52201115 142.99947323 92.52201115 142.99947323 91.40795898 144.11352539 C89.48128391 144.20100746 87.55144037 144.22049873 85.62280273 144.21118164 C84.45297852 144.20795898 83.2831543 144.20473633 82.07788086 144.20141602 C80.84618164 144.19303711 79.61448242 144.1846582 78.34545898 144.17602539 C76.49210937 144.16925781 76.49210937 144.16925781 74.60131836 144.16235352 C71.53681782 144.15052147 68.47241177 144.13403712 65.40795898 144.11352539 C63.69921148 140.8199335 61.9906815 137.52622885 60.28234863 134.23242188 C59.65631415 133.02537846 59.0302561 131.81834726 58.4041748 130.61132812 C54.76102291 123.58734243 51.12109178 116.56171797 47.48999023 109.53149414 C46.52942223 107.67204098 45.56883933 105.81259552 44.60824585 103.95315552 C43.97503926 102.72735102 43.34192149 101.50150064 42.70889282 100.27560425 C38.28470136 91.70963482 33.82872945 83.1613096 29.2878418 74.65649414 C27.78880807 71.83324873 26.42090451 69.15236197 25.40795898 66.11352539 C25.07795898 93.83352539 24.74795898 121.55352539 24.40795898 150.11352539 C15.49795898 150.11352539 6.58795898 150.11352539 -2.59204102 150.11352539 C-2.59204102 156.38352539 -2.59204102 162.65352539 -2.59204102 169.11352539 C7.85862152 169.43624487 18.30167058 169.67162288 28.75700569 169.7586174 C33.61359349 169.80240979 38.46358928 169.88257327 43.31762695 170.04956055 C63.58667702 171.64451688 63.58667702 171.64451688 82.48425293 166.20947266 C87.14028743 161.71510116 89.83403219 156.62922655 92.24624634 150.68588257 C94.18481149 146.39335636 97.04663315 142.82599098 99.90795898 139.11352539 C100.972174 137.65573118 102.03259145 136.19515013 103.08764648 134.73071289 C103.62228516 133.99046875 104.15692383 133.25022461 104.70776367 132.48754883 C108.46200788 127.24540772 112.14381338 121.95198807 115.82788086 116.66040039 C116.38282227 115.86375977 116.93776367 115.06711914 117.50952148 114.24633789 C118.24162842 113.192771 118.24162842 113.192771 118.98852539 112.11791992 C120.42599302 110.08805937 121.90649897 108.09638651 123.40795898 106.11352539 C122.2041445 103.61990968 120.95367177 101.43209456 119.40795898 99.11352539 C119.55258353 93.18391904 122.67128953 88.22332148 125.40795898 83.11352539 C125.73795898 83.11352539 126.06795898 83.11352539 126.40795898 83.11352539 C126.40795898 94.66352539 126.40795898 106.21352539 126.40795898 118.11352539 C138.28795898 118.11352539 150.16795898 118.11352539 162.40795898 118.11352539 C162.40795898 115.80352539 162.40795898 113.49352539 162.40795898 111.11352539 C166.71535921 115.14328472 170.0676404 119.55763176 173.47045898 124.36352539 C174.02757568 125.14332764 174.58469238 125.92312988 175.15869141 126.7265625 C176.91310301 129.1856047 178.66048575 131.64954943 180.40795898 134.11352539 C181.57956386 135.75564523 182.75143453 137.39757548 183.92358398 139.03930664 C185.02304139 140.58452458 186.1220185 142.1300844 187.22045898 143.67602539 C187.74196533 144.40789062 188.26347168 145.13975586 188.80078125 145.89379883 C192.40795898 150.99708336 192.40795898 150.99708336 192.40795898 152.11352539 C162.22335158 154.98124692 162.22335158 154.98124692 154.52270508 150.39526367 C150.34112128 146.29615687 147.61910315 141.49119284 145.38647461 136.10644531 C144.3417193 133.97861656 143.16416406 132.68498117 141.40795898 131.11352539 C134.79786303 140.22573897 128.21050615 149.35277827 121.72045898 158.55102539 C121.21611328 159.26572998 120.71176758 159.98043457 120.19213867 160.71679688 C118.23358679 163.49814246 116.29512146 166.28278167 114.40795898 169.11352539 C154.00795898 169.11352539 193.60795898 169.11352539 234.40795898 169.11352539 C234.40795898 170.10352539 234.40795898 171.09352539 234.40795898 172.11352539 C233.77865888 172.11222657 233.14935877 172.11092775 232.50098896 172.10958958 C217.18556935 172.08038244 201.87073179 172.08974628 186.55539417 172.14199162 C179.14894339 172.16632806 171.74290173 172.17762992 164.33642578 172.15820312 C157.88055295 172.14130283 151.42525233 172.14890328 144.96945494 172.18587297 C141.5512153 172.20459354 138.13394326 172.21107948 134.71570778 172.18821907 C130.89842839 172.1688501 127.08372325 172.19278578 123.26660156 172.22705078 C122.1344371 172.21123459 121.00227264 172.1954184 119.83580017 172.17912292 C114.29695841 172.09372968 114.29695841 172.09372968 109.69433117 174.70298672 C108.3632471 176.56882009 108.3632471 176.56882009 107.43606567 178.53583527 C106.40795898 180.11352539 106.40795898 180.11352539 102.81103516 180.90820312 C101.4404995 180.90710572 100.06962118 180.86816442 98.70092773 180.79711914 C97.97553299 180.78721451 97.25013824 180.77730988 96.50276184 180.7671051 C94.19822153 180.72808563 91.89854451 180.64031839 89.59545898 180.55102539 C88.02847078 180.51589403 86.46140747 180.48395817 84.89428711 180.45532227 C81.06365292 180.37836866 77.23662865 180.25769858 73.40795898 180.11352539 C73.95519582 176.73889824 74.46285898 175.0311754 76.40795898 172.11352539 C49.34795898 172.11352539 22.28795898 172.11352539 -5.59204102 172.11352539 C-5.59204102 122.61352539 -5.59204102 73.11352539 -5.59204102 22.11352539 C-4.93204102 22.11352539 -4.27204102 22.11352539 -3.59204102 22.11352539 C-3.59727783 21.48260986 -3.60251465 20.85169434 -3.60791016 20.20166016 C-3.62861928 17.35979192 -3.64168168 14.51793951 -3.65454102 11.67602539 C-3.66291992 10.68280273 -3.67129883 9.68958008 -3.67993164 8.66625977 C-3.6831543 7.72202148 -3.68637695 6.7777832 -3.68969727 5.80493164 C-3.69493408 4.9303833 -3.7001709 4.05583496 -3.70556641 3.15478516 C-3.53330851 0.05747696 -3.12117091 0.13670005 0 0 Z " fill="#FBFBFB" transform="translate(152.592041015625,135.886474609375)"/>
<path d="M0 0 C1.11503906 0.45246094 2.23007812 0.90492188 3.37890625 1.37109375 C16.56169586 7.30121594 25.92512468 16.77431776 32 30 C39.08094156 48.86085657 38.66667688 67.69783133 30.4453125 86.18359375 C23.42185061 99.86985326 13.33523795 109.28809337 -1.25 114.3125 C-12.74186663 117.99300323 -26.40439745 118.71653928 -38 115 C-38.86882812 114.74347656 -39.73765625 114.48695313 -40.6328125 114.22265625 C-54.85367985 109.60780654 -65.19757324 100.15004011 -72 87 C-73.55097253 83.72514246 -74.8404469 80.43227718 -76 77 C-76.30035156 76.12085938 -76.60070312 75.24171875 -76.91015625 74.3359375 C-82.03652229 57.02551077 -79.11135119 39.62661211 -70.765625 23.8203125 C-67.74240656 18.99118924 -64.04137149 14.9913014 -60 11 C-59.44699219 10.42507812 -58.89398438 9.85015625 -58.32421875 9.2578125 C-44.17050806 -4.2988434 -17.79972412 -7.46785418 0 0 Z " fill="#FBFBFB" transform="translate(405,174)"/>
<path d="M0 0 C7.5992685 5.67857426 11.34964972 12.84346623 13.75 21.875 C13.93304688 22.47699219 14.11609375 23.07898438 14.3046875 23.69921875 C16.74309208 35.61317797 14.29987077 47.38454494 8.0625 57.6875 C2.78750865 64.95380058 -3.57619008 69.47664284 -12.36328125 71.4375 C-22.57158767 72.98463169 -31.70065625 72.15420727 -40.50390625 66.40234375 C-45.83656868 62.12204734 -49.21372003 56.94755995 -52.25 50.875 C-52.59160156 50.21242187 -52.93320312 49.54984375 -53.28515625 48.8671875 C-57.10356462 39.80956764 -56.72561144 27.01054815 -53.625 17.8125 C-52.88800634 16.14146924 -52.09733377 14.49287792 -51.25 12.875 C-50.8375 12.07707031 -50.425 11.27914062 -50 10.45703125 C-45.25551566 2.41027798 -37.5748795 -3.14569877 -28.59375 -5.69140625 C-18.19916652 -7.61440419 -8.84532714 -5.69855904 0 0 Z " fill="#020202" transform="translate(404.25,198.125)"/>
<path d="M0 0 C1.37569136 0.00094406 2.75162457 0.03451723 4.12597656 0.09521484 C4.85278625 0.10370453 5.57959595 0.11219421 6.32843018 0.12094116 C8.64268278 0.15444634 10.95340861 0.22970302 13.26660156 0.30615234 C14.83816569 0.33625646 16.40978464 0.36363151 17.98144531 0.38818359 C21.8278497 0.45422585 25.67162847 0.55771314 29.51660156 0.68115234 C29.51660156 4.68115234 29.51660156 4.68115234 28.51660156 6.68115234 C26.72896708 7.60589242 24.91031547 8.47102549 23.07910156 9.30615234 C8.16207475 16.67629474 -0.98881895 27.83676989 -6.58496094 43.42333984 C-7.499953 46.74118062 -7.93222294 49.88760265 -8.29589844 53.30615234 C-9.17456418 60.51999809 -12.65274433 65.38335806 -17.48339844 70.68115234 C-17.81339844 70.68115234 -18.14339844 70.68115234 -18.48339844 70.68115234 C-18.76540633 63.97847981 -18.95618708 57.27736612 -19.08764648 50.57006836 C-19.14251402 48.29539858 -19.21724218 46.02110846 -19.31323242 43.74780273 C-19.8763557 30.05517426 -19.81196262 20.09981579 -10.25610352 9.65405273 C-9.77688446 9.16443054 -9.29766541 8.67480835 -8.80392456 8.17034912 C-7.22015009 6.49074609 -7.22015009 6.49074609 -5.60229492 3.32495117 C-3.48339844 0.68115234 -3.48339844 0.68115234 0 0 Z " fill="#F8F8F8" transform="translate(333.4833984375,165.31884765625)"/>
<path d="M0 0 C3.70390021 2.02666238 5.65363011 3.48044516 8 7 C8.43145362 12.35002483 8.45651329 15.64735364 5 20 C0.7741215 22.81725233 -3.03624688 22.79958384 -8 22 C-10.82424288 19.80977082 -12.41508603 18.16982793 -14 15 C-14.68128376 8.18716238 -14.68128376 8.18716238 -12.953125 5.17578125 C-8.88247975 0.23114452 -6.32187559 -0.52682297 0 0 Z " fill="#F9F9F9" transform="translate(387,220)"/>
<path d="M0 0 C2.31 0 4.62 0 7 0 C7.20496094 0.78246094 7.40992188 1.56492187 7.62109375 2.37109375 C7.89050781 3.38300781 8.15992188 4.39492188 8.4375 5.4375 C8.83775391 6.95150391 8.83775391 6.95150391 9.24609375 8.49609375 C9.75978077 10.91752001 9.75978077 10.91752001 11 12 C11.50833591 10.75336669 12.00631145 9.50250613 12.5 8.25 C12.7784375 7.55390625 13.056875 6.8578125 13.34375 6.140625 C14.19540327 3.73577305 14.19540327 3.73577305 14 0 C16.64 0 19.28 0 22 0 C22.06058594 1.20398438 22.12117188 2.40796875 22.18359375 3.6484375 C22.26799732 5.22397077 22.35264541 6.79949096 22.4375 8.375 C22.47681641 9.1690625 22.51613281 9.963125 22.55664062 10.78125 C22.68893404 15.02601221 22.68893404 15.02601221 24 19 C21.36 19 18.72 19 16 19 C16.33 15.04 16.66 11.08 17 7 C16.34 7 15.68 7 15 7 C14.8453125 8.0209375 14.8453125 8.0209375 14.6875 9.0625 C13.85274981 12.62915989 12.50527246 15.66222194 11 19 C9.109375 18.75390625 9.109375 18.75390625 7 18 C5.55036313 15.44149911 4.89599095 12.8223715 4 10 C3.67 12.97 3.34 15.94 3 19 C1.68 18.67 0.36 18.34 -1 18 C-0.9278125 16.78441406 -0.855625 15.56882812 -0.78125 14.31640625 C-0.68748464 12.73177174 -0.59373548 11.14713628 -0.5 9.5625 C-0.45230469 8.76005859 -0.40460938 7.95761719 -0.35546875 7.13085938 C-0.10759125 3.56775887 -0.10759125 3.56775887 0 0 Z " fill="#E5E5E5" transform="translate(201,336)"/>
<path d="M0 0 C1.98 0 3.96 0 6 0 C6 4.29 6 8.58 6 13 C6.99 13 7.98 13 9 13 C9.05391993 11.20866022 9.09275571 9.41686101 9.125 7.625 C9.14820313 6.62726563 9.17140625 5.62953125 9.1953125 4.6015625 C9.27216848 1.83737827 9.27216848 1.83737827 7 0 C9.25 -0.3125 9.25 -0.3125 12 0 C14.375 2.125 14.375 2.125 16 5 C16 8.56090901 15.69349238 10.25697245 13.25 12.875 C10.63695229 14.18152386 8.88466476 14.24038873 6 14 C6.33 15.32 6.66 16.64 7 18 C4.69 18 2.38 18 0 18 C0 12.06 0 6.12 0 0 Z " fill="#FCFCFC" transform="translate(263,341)"/>
<path d="M0 0 C2.5 1.5625 2.5 1.5625 4 4 C4 7.77684879 3.78395245 10.03513544 1.375 13 C-2.04776185 14.44116288 -4.44605372 13.85557966 -8 13 C-10 11 -10 11 -10.3125 7.0625 C-10.23081662 4.56208106 -10.12109418 3.22794199 -8.9375 1 C-5.82090489 -0.60856522 -3.43737531 -0.42213381 0 0 Z " fill="#DFDFDF" transform="translate(239,341)"/>
<path d="M0 0 C0.66 0.33 1.32 0.66 2 1 C0.59896549 4.28099409 -0.99346316 6.07414935 -3.75 8.3125 C-14.20252935 17.27719184 -20.52661142 28.43377733 -23.296875 41.98828125 C-23.52890625 42.65214844 -23.7609375 43.31601563 -24 44 C-25.485 44.495 -25.485 44.495 -27 45 C-26.37528379 32.71391445 -21.5176388 22.58061875 -14 13 C-13.21625 11.948125 -12.4325 10.89625 -11.625 9.8125 C-8.10964593 6.04604921 -4.14013063 3.04872364 0 0 Z " fill="#1A1A1A" transform="translate(351,176)"/>
<path d="M0 0 C0.33 0 0.66 0 1 0 C1 11.55 1 23.1 1 35 C0.67 35 0.34 35 0 35 C-0.33 31.7 -0.66 28.4 -1 25 C-1.66 25.33 -2.32 25.66 -3 26 C-2.7525 25.278125 -2.505 24.55625 -2.25 23.8125 C-1.65496409 20.84037084 -1.65496409 20.84037084 -4 18.5625 C-6 16 -6 16 -6.0625 13.3125 C-4.55351721 8.60802424 -2.32828303 4.34727386 0 0 Z " fill="#E6E6E6" transform="translate(278,219)"/>
<path d="M0 0 C2.64 0 5.28 0 8 0 C8.06058594 1.20398438 8.12117187 2.40796875 8.18359375 3.6484375 C8.26799732 5.22397077 8.35264541 6.79949096 8.4375 8.375 C8.47681641 9.1690625 8.51613281 9.963125 8.55664062 10.78125 C8.68893404 15.02601221 8.68893404 15.02601221 10 19 C7.36 19 4.72 19 2 19 C2.33 14.71 2.66 10.42 3 6 C2.34 6 1.68 6 1 6 C0.67 4.02 0.34 2.04 0 0 Z " fill="#EDEDED" transform="translate(215,336)"/>
<path d="M0 0 C2.31 0 4.62 0 7 0 C7.33 0.99 7.66 1.98 8 3 C8.66 3 9.32 3 10 3 C10.33 2.01 10.66 1.02 11 0 C12.32 0.33 13.64 0.66 15 1 C13.68 2.32 12.36 3.64 11 5 C12.52708963 8.43595166 14.59927045 11.11912454 17 14 C14.36 14 11.72 14 9 14 C8.67 13.01 8.34 12.02 8 11 C7.34 10.67 6.68 10.34 6 10 C5.67 11.32 5.34 12.64 5 14 C3.68 13.67 2.36 13.34 1 13 C2.32 11.68 3.64 10.36 5 9 C3.7508258 5.54074837 2.32472205 2.85306797 0 0 Z " fill="#ECECEC" transform="translate(312,341)"/>
<path d="M0 0 C3.96 0 7.92 0 12 0 C12.33 0.99 12.66 1.98 13 3 C10.03 2.505 10.03 2.505 7 2 C7 5.96 7 9.92 7 14 C4.69 14 2.38 14 0 14 C0 9.38 0 4.76 0 0 Z " fill="#FBFBFB" transform="translate(246,341)"/>
<path d="M0 0 C1.98 0 3.96 0 6 0 C6.33 5.94 6.66 11.88 7 18 C4.69 18 2.38 18 0 18 C0 12.06 0 6.12 0 0 Z " fill="#FCFCFC" transform="translate(282,337)"/>
<path d="M0 0 C2.31 0 4.62 0 7 0 C7.33 4.62 7.66 9.24 8 14 C5.36 14 2.72 14 0 14 C0.66 13.67 1.32 13.34 2 13 C1.85915204 11.20793453 1.71216299 9.41635083 1.5625 7.625 C1.48128906 6.62726563 1.40007812 5.62953125 1.31640625 4.6015625 C1.15034374 2.02072387 1.15034374 2.02072387 0 0 Z " fill="#F0F0F0" transform="translate(301,341)"/>
<path d="M0 0 C2.875 -0.125 2.875 -0.125 6 0 C8.68092691 2.68092691 8.38670257 4.39167363 8.625 8.125 C8.69976562 9.22070312 8.77453125 10.31640625 8.8515625 11.4453125 C8.92503906 12.70988281 8.92503906 12.70988281 9 14 C6.69 14 4.38 14 2 14 C2.02320313 13.15695312 2.04640625 12.31390625 2.0703125 11.4453125 C2.08835937 10.34960938 2.10640625 9.25390625 2.125 8.125 C2.14820313 7.03445313 2.17140625 5.94390625 2.1953125 4.8203125 C2.30060534 1.8628949 2.30060534 1.8628949 0 0 Z " fill="#F3F3F3" transform="translate(289,341)"/>
<path d="M0 0 C2.25 -0.3125 2.25 -0.3125 5 0 C7.375 2.125 7.375 2.125 9 5 C9 8.56090901 8.69349238 10.25697245 6.25 12.875 C3.63695229 14.18152386 1.88466476 14.24038873 -1 14 C-0.01 13.67 0.98 13.34 2 13 C2.05391993 11.20866022 2.09275571 9.41686101 2.125 7.625 C2.14820313 6.62726563 2.17140625 5.62953125 2.1953125 4.6015625 C2.27216848 1.83737827 2.27216848 1.83737827 0 0 Z " fill="#E4E4E4" transform="translate(270,341)"/>
<path d="M0 0 C0.99 0 1.98 0 3 0 C3 1.32 3 2.64 3 4 C4.65 4 6.3 4 8 4 C7.01 4.66 6.02 5.32 5 6 C5.33 6.33 5.66 6.66 6 7 C6.07226502 8.85287502 6.0838122 10.70833878 6.0625 12.5625 C6.05347656 13.57441406 6.04445313 14.58632813 6.03515625 15.62890625 C6.02355469 16.41136719 6.01195312 17.19382812 6 18 C4.68 18 3.36 18 2 18 C2 12.39 2 6.78 2 1 C1.34 0.67 0.68 0.34 0 0 Z " fill="#2D2D2D" transform="translate(286,336)"/>
<path d="M0 0 C1.98 0.99 1.98 0.99 4 2 C4.0270043 3.45823212 4.04639787 4.91660675 4.0625 6.375 C4.07410156 7.18710937 4.08570313 7.99921875 4.09765625 8.8359375 C4 11 4 11 3 13 C2.01 13 1.02 13 0 13 C0 8.71 0 4.42 0 0 Z " fill="#0E0E0E" transform="translate(269,341)"/>
<path d="M0 0 C1.32 0.33 2.64 0.66 4 1 C4 4.3 4 7.6 4 11 C2.68 11 1.36 11 0 11 C0 7.37 0 3.74 0 0 Z " fill="#0D0D0D" transform="translate(234,342)"/>
<path d="M0 0 C0.16873478 1.43725871 0.33490737 2.87481838 0.5 4.3125 C0.5928125 5.11300781 0.685625 5.91351563 0.78125 6.73828125 C1 9 1 9 1 12 C-1.5 10.875 -1.5 10.875 -4 9 C-4.5 6 -4.5 6 -4 3 C-1.7 0 -1.7 0 0 0 Z " fill="#F4F4F4" transform="translate(233,343)"/>
<path d="M0 0 C3.41794232 4.55725642 3.2800783 5.36292453 2.6875 10.75 C2.50767578 12.50570313 2.50767578 12.50570313 2.32421875 14.296875 C2.21722656 15.18890625 2.11023438 16.0809375 2 17 C0.68 16.67 -0.64 16.34 -2 16 C-1.34 10.72 -0.68 5.44 0 0 Z " fill="#D0D0D0" transform="translate(202,338)"/>
<path d="M0 0 C0.66 0.33 1.32 0.66 2 1 C1.7452486 2.31571603 1.47065859 3.62760376 1.1875 4.9375 C1.03667969 5.66839844 0.88585937 6.39929688 0.73046875 7.15234375 C0.48941406 7.76207031 0.24835938 8.37179688 0 9 C-0.99 9.33 -1.98 9.66 -3 10 C-2.88637738 8.5199159 -2.75877092 7.04089926 -2.625 5.5625 C-2.55539062 4.73878906 -2.48578125 3.91507813 -2.4140625 3.06640625 C-2.27742188 2.38449219 -2.14078125 1.70257813 -2 1 C-1.34 0.67 -0.68 0.34 0 0 Z " fill="#232323" transform="translate(327,211)"/>
<path d="M0 0 C1.13643966 3.40931897 0.86747764 4.00335456 -0.4375 7.1875 C-0.72496094 7.90292969 -1.01242187 8.61835938 -1.30859375 9.35546875 C-1.53675781 9.89816406 -1.76492188 10.44085938 -2 11 C-2.99 11 -3.98 11 -5 11 C-4.74445946 9.53890937 -4.46999628 8.08111904 -4.1875 6.625 C-4.03667969 5.81289062 -3.88585937 5.00078125 -3.73046875 4.1640625 C-3 2 -3 2 0 0 Z " fill="#101010" transform="translate(331,201)"/>
<path d="M0 0 C1.98 0 3.96 0 6 0 C6.33 0.99 6.66 1.98 7 3 C4.03 2.505 4.03 2.505 1 2 C1 5.63 1 9.26 1 13 C0.67 13 0.34 13 0 13 C0 8.71 0 4.42 0 0 Z " fill="#848484" transform="translate(252,341)"/>
<path d="M0 0 C2.31 0 4.62 0 7 0 C6.34 1.98 5.68 3.96 5 6 C3.31237149 4.3545622 1.6459651 2.68711423 0 1 C0 0.67 0 0.34 0 0 Z " fill="#DADADA" transform="translate(244,195)"/>
<path d="M0 0 C2.475 0.495 2.475 0.495 5 1 C5 1.99 5 2.98 5 4 C3.35 4.33 1.7 4.66 0 5 C0 3.35 0 1.7 0 0 Z " fill="#D7D7D7" transform="translate(303,335)"/>
</svg>
